HIERARCHY
ROOT reference
{
  OFFSET 0 0 0
  CHANNELS 6 Xposition Yposition Zposition Zrotation Xrotation Yrotation
  JOINT Hips
  {
    OFFSET 355.919 86.4685 225.794
    CHANNELS 3 Zrotation Xrotation Yrotation
    JOINT RightUpLeg
    {
      OFFSET -9.27022 -1.53975 0.0125073
      CHANNELS 3 Zrotation Xrotation Yrotation
      JOINT RightLeg
      {
        OFFSET 0.013591 -41.8786 0.0152335
        CHANNELS 3 Zrotation Xrotation Yrotation
        JOINT RightFoot
        {
          OFFSET -0.635566 -43.1371 -0.638083
          CHANNELS 3 Zrotation Xrotation Yrotation
          End Site
          {
            OFFSET 0 -7.69 17.5
          }
        }
      }
    }
    JOINT LeftUpLeg
    {
      OFFSET 9.3307 -1.62449 -0.0651281
      CHANNELS 3 Zrotation Xrotation Yrotation
      JOINT LeftLeg
      {
        OFFSET 0.136006 -41.8606 -0.0682192
        CHANNELS 3 Zrotation Xrotation Yrotation
        JOINT LeftFoot
        {
          OFFSET 0.555276 -40.3296 1.11688
          CHANNELS 3 Zrotation Xrotation Yrotation
          End Site
          {
            OFFSET 0 -7.69 17.5
          }
        }
      }
    }
    JOINT Spine
    {
      OFFSET 0.0523142 14.2998 0.0636653
      CHANNELS 3 Zrotation Xrotation Yrotation
      JOINT Spine1
      {
        OFFSET 0.0411785 9.71676 0.0113233
        CHANNELS 3 Zrotation Xrotation Yrotation
        JOINT Spine2
        {
          OFFSET 0.0674534 10.1151 -0.00111457
          CHANNELS 3 Zrotation Xrotation Yrotation
          JOINT Spine3
          {
            OFFSET 0.048863 9.72171 0.0174249
            CHANNELS 3 Zrotation Xrotation Yrotation
            JOINT Neck
            {
              OFFSET 0.180558 10.3768 0.0617075
              CHANNELS 3 Zrotation Xrotation Yrotation
              JOINT Head
              {
                OFFSET 0.135918 9.47305 0.0380206
                CHANNELS 3 Zrotation Xrotation Yrotation
                End Site
                {
                  OFFSET 0 15.95 0
                }
              }
            }
            JOINT RightShoulder
            {
              OFFSET -3.15694 6.89408 0.00348883
              CHANNELS 3 Zrotation Xrotation Yrotation
              JOINT RightArm
              {
                OFFSET -12.7409 -0.0031918 0.045926
                CHANNELS 3 Zrotation Xrotation Yrotation
                JOINT RightForeArm
                {
                  OFFSET -26.5086 -0.0806184 0.00400063
                  CHANNELS 3 Zrotation Xrotation Yrotation
                  JOINT RightHand
                  {
                    OFFSET -26.0338 -0.025514 0.155859
                    CHANNELS 3 Zrotation Xrotation Yrotation
                    JOINT RightHandThumb1
                    {
                      OFFSET -2.48905 0.190105 3.12053
                      CHANNELS 3 Zrotation Xrotation Yrotation
                      JOINT RightHandThumb2
                      {
                        OFFSET -3.68274 0 0
                        CHANNELS 3 Zrotation Xrotation Yrotation
                        JOINT RightHandThumb3
                        {
                          OFFSET -2.55832 0 0
                          CHANNELS 3 Zrotation Xrotation Yrotation
                          End Site
                          {
                            OFFSET -2.194 0 0
                          }
                        }
                      }
                    }
                    JOINT RightInHandIndex
                    {
                      OFFSET -3.22368 0.508421 1.97842
                      CHANNELS 3 Zrotation Xrotation Yrotation
                      JOINT RightHandIndex1
                      {
                        OFFSET -5.21684 -0.091368 0.999158
                        CHANNELS 3 Zrotation Xrotation Yrotation
                        JOINT RightHandIndex2
                        {
                          OFFSET -3.61937 0 0
                          CHANNELS 3 Zrotation Xrotation Yrotation
                          JOINT RightHandIndex3
                          {
                            OFFSET -2.0521 0 0
                            CHANNELS 3 Zrotation Xrotation Yrotation
                            End Site
                            {
                              OFFSET -1.805 0 0
                            }
                          }
                        }
                      }
                    }
                    JOINT RightInHandMiddle
                    {
                      OFFSET -3.38211 0.517263 0.756737
                      CHANNELS 3 Zrotation Xrotation Yrotation
                      JOINT RightHandMiddle1
                      {
                        OFFSET -5.17411 -0.084 0.313895
                        CHANNELS 3 Zrotation Xrotation Yrotation
                        JOINT RightHandMiddle2
                        {
                          OFFSET -3.94947 0 0
                          CHANNELS 3 Zrotation Xrotation Yrotation
                          JOINT RightHandMiddle3
                          {
                            OFFSET -2.47579 0 0
                            CHANNELS 3 Zrotation Xrotation Yrotation
                            End Site
                            {
                              OFFSET -1.975 0 0
                            }
                          }
                        }
                      }
                    }
                    JOINT RightInHandRing
                    {
                      OFFSET -3.36516 0.537895 -0.128947
                      CHANNELS 3 Zrotation Xrotation Yrotation
                      JOINT RightHandRing1
                      {
                        OFFSET -4.63474 -0.022105 -0.478947
                        CHANNELS 3 Zrotation Xrotation Yrotation
                        JOINT RightHandRing2
                        {
                          OFFSET -3.44238 0 0
                          CHANNELS 3 Zrotation Xrotation Yrotation
                          JOINT RightHandRing3
                          {
                            OFFSET -2.3881 0 0
                            CHANNELS 3 Zrotation Xrotation Yrotation
                            End Site
                            {
                              OFFSET -1.857 0 0
                            }
                          }
                        }
                      }
                    }
                    JOINT RightInHandPinky
                    {
                      OFFSET -3.16105 0.469368 -1.20179
                      CHANNELS 3 Zrotation Xrotation Yrotation
                      JOINT RightHandPinky1
                      {
                        OFFSET -4.14105 -0.022105 -1.09053
                        CHANNELS 3 Zrotation Xrotation Yrotation
                        JOINT RightHandPinky2
                        {
                          OFFSET -2.75653 0 0
                          CHANNELS 3 Zrotation Xrotation Yrotation
                          JOINT RightHandPinky3
                          {
                            OFFSET -1.74189 0 0
                            CHANNELS 3 Zrotation Xrotation Yrotation
                            End Site
                            {
                              OFFSET -1.645 0 0
                            }
                          }
                        }
                      }
                    }
                  }
                }
              }
            }
            JOINT LeftShoulder
            {
              OFFSET 3.22505 6.94333 0.022328
              CHANNELS 3 Zrotation Xrotation Yrotation
              JOINT LeftArm
              {
                OFFSET 12.8536 -0.0213048 -0.00476292
                CHANNELS 3 Zrotation Xrotation Yrotation
                JOINT LeftForeArm
                {
                  OFFSET 26.4992 -0.0497473 -0.102272
                  CHANNELS 3 Zrotation Xrotation Yrotation
                  JOINT LeftHand
                  {
                    OFFSET 25.9818 -0.0182282 -0.0189166
                    CHANNELS 3 Zrotation Xrotation Yrotation
                    JOINT LeftHandThumb1
                    {
                      OFFSET 2.48905 0.190105 3.12053
                      CHANNELS 3 Zrotation Xrotation Yrotation
                      JOINT LeftHandThumb2
                      {
                        OFFSET 3.68274 0 0
                        CHANNELS 3 Zrotation Xrotation Yrotation
                        JOINT LeftHandThumb3
                        {
                          OFFSET 2.55832 0 0
                          CHANNELS 3 Zrotation Xrotation Yrotation
                          End Site
                          {
                            OFFSET 2.194 0 0
                          }
                        }
                      }
                    }
                    JOINT LeftInHandIndex
                    {
                      OFFSET 3.22368 0.508421 1.97842
                      CHANNELS 3 Zrotation Xrotation Yrotation
                      JOINT LeftHandIndex1
                      {
                        OFFSET 5.21684 -0.091368 0.999158
                        CHANNELS 3 Zrotation Xrotation Yrotation
                        JOINT LeftHandIndex2
                        {
                          OFFSET 3.61937 0 0
                          CHANNELS 3 Zrotation Xrotation Yrotation
                          JOINT LeftHandIndex3
                          {
                            OFFSET 2.0521 0 0
                            CHANNELS 3 Zrotation Xrotation Yrotation
                            End Site
                            {
                              OFFSET 1.805 0 0
                            }
                          }
                        }
                      }
                    }
                    JOINT LeftInHandMiddle
                    {
                      OFFSET 3.38211 0.517263 0.756737
                      CHANNELS 3 Zrotation Xrotation Yrotation
                      JOINT LeftHandMiddle1
                      {
                        OFFSET 5.17411 -0.084 0.313895
                        CHANNELS 3 Zrotation Xrotation Yrotation
                        JOINT LeftHandMiddle2
                        {
                          OFFSET 3.94947 0 0
                          CHANNELS 3 Zrotation Xrotation Yrotation
                          JOINT LeftHandMiddle3
                          {
                            OFFSET 2.47579 0 0
                            CHANNELS 3 Zrotation Xrotation Yrotation
                            End Site
                            {
                              OFFSET 1.975 0 0
                            }
                          }
                        }
                      }
                    }
                    JOINT LeftInHandRing
                    {
                      OFFSET 3.36516 0.537895 -0.128947
                      CHANNELS 3 Zrotation Xrotation Yrotation
                      JOINT LeftHandRing1
                      {
                        OFFSET 4.63474 -0.022105 -0.478947
                        CHANNELS 3 Zrotation Xrotation Yrotation
                        JOINT LeftHandRing2
                        {
                          OFFSET 3.44238 0 0
                          CHANNELS 3 Zrotation Xrotation Yrotation
                          JOINT LeftHandRing3
                          {
                            OFFSET 2.3881 0 0
                            CHANNELS 3 Zrotation Xrotation Yrotation
                            End Site
                            {
                              OFFSET 1.857 0 0
                            }
                          }
                        }
                      }
                    }
                    JOINT LeftInHandPinky
                    {
                      OFFSET 3.16105 0.469368 -1.20179
                      CHANNELS 3 Zrotation Xrotation Yrotation
                      JOINT LeftHandPinky1
                      {
                        OFFSET 4.14105 -0.022105 -1.09053
                        CHANNELS 3 Zrotation Xrotation Yrotation
                        JOINT LeftHandPinky2
                        {
                          OFFSET 2.75653 0 0
                          CHANNELS 3 Zrotation Xrotation Yrotation
                          JOINT LeftHandPinky3
                          {
                            OFFSET 1.74189 0 0
                            CHANNELS 3 Zrotation Xrotation Yrotation
                            End Site
                            {
                              OFFSET 1.645 0 0
                            }
                          }
                        }
                      }
                    }
                  }
                }
              }
            }
          }
        }
      }
    }
  }
}
MOTION
Frames:	4
Frame Time:	0.00833333
0 0 0 0 0 -0 31.8406 11.2629 -112.993 37.5878 -46.3287 27.8891 -0.78309 21.8122 -10.2762 6.52341 1.02997 36.6923 46.962 -16.4498 16.7202 -6.7674 36.4183 -0.531295 6.94011 -11.0705 22.5497 -3.64749 -2.97173 -9.39857 -0.866792 -0.810954 -2.31051 -1.45169 -1.3869 -3.78871 -0.537186 -0.217309 2.58777 -1.47348 -2.73271 28.5544 -9.48347 5.18982 31.5454 9.39104 4.20486 -4.8055 59.6252 -42.2073 9.53869 26.5658 -11.2181 120.452 12.3791 -31.8196 7.95634 28.184 10.7294 19.1592 1.99385e-14 3.18055e-15 -10 6.61635e-15 3.18055e-15 -10 1.59028e-15 0 -0 19.9818 0.871897 2.3964 24 6.36111e-15 2.8625e-14 20 6.36111e-15 2.54444e-14 1.59028e-15 0 -0 20 1.59028e-14 1.74931e-14 24 9.54166e-15 3.33958e-14 20 0 6.36111e-15 1.59028e-15 0 -0 19.9748 -1.02565 -2.81938 24 6.36111e-15 9.54166e-15 20 -1.59028e-14 9.54166e-15 1.59028e-15 0 -0 19.7815 -3.00948 -8.30515 24 6.36111e-15 3.33958e-14 20 -6.36111e-15 1.27222e-14 7.47531 -14.8747 -49.5064 -14.4001 34.9776 -110.176 26.5197 -8.59896 -24.6181 -41.1164 -10.4587 -11.2062 -28.184 10.7294 -19.1592 2.6688e-15 3.18055e-15 10 5.3376e-15 6.36111e-15 10 1.59028e-15 9.54166e-15 3.18055e-15 -19.9818 0.871897 -2.3964 -24 -3.18055e-15 1.11319e-14 -20 -6.36111e-15 6.36111e-15 1.59028e-15 9.54166e-15 3.18055e-15 -20 -6.36111e-15 6.36111e-15 -24 -3.18055e-15 9.93923e-15 -20 -6.36111e-15 1.66979e-14 1.59028e-15 9.54166e-15 3.18055e-15 -19.9748 -1.02565 2.81938 -24 0 -1.11319e-14 -20 0 1.66979e-14 1.59028e-15 9.54166e-15 3.18055e-15 -19.7815 -3.00948 8.30515 -24 0 1.19271e-14 -20 0 9.54166e-15 
0 0 0 0 0 -0 31.9194 11.6756 -112.37 37.2041 -46.7052 27.435 -0.581271 21.9331 -10.4678 6.4365 0.970371 36.386 47.0305 -17.3592 16.8626 -6.14912 36.7658 -1.04392 7.32554 -10.6607 21.9527 -3.22454 -2.57481 -9.34998 -0.771446 -0.916186 -2.25514 -1.29349 -1.26965 -3.77012 -0.554028 -0.220902 2.57234 -1.5355 -2.75536 27.7936 -9.82417 5.19643 31.8016 9.1049 3.96827 -4.71951 60.3552 -41.2477 9.99421 25.8634 -11.508 119.671 12.449 -32.1539 8.59269 28.184 10.7294 19.1592 2.25397e-14 -9.54166e-15 -10 4.93175e-16 -6.36111e-15 -10 -1.59028e-15 -6.36111e-15 -4.77083e-15 19.9818 0.871897 2.3964 24 2.22639e-14 2.22639e-14 20 -6.36111e-15 1.27222e-14 -1.59028e-15 -6.36111e-15 -4.77083e-15 20 3.18055e-15 1.85864e-14 24 6.36111e-15 2.54444e-14 20 0 -3.18055e-15 -1.59028e-15 -6.36111e-15 -4.77083e-15 19.9748 -1.02565 -2.81938 24 6.36111e-15 1.74931e-14 20 0 6.36111e-15 -1.59028e-15 -6.36111e-15 -4.77083e-15 19.7815 -3.00948 -8.30515 24 6.36111e-15 3.18055e-14 20 -3.18055e-15 6.36111e-15 7.40668 -14.9684 -49.1533 -14.7115 35.1822 -109.878 26.3597 -8.52971 -24.1539 -41.1408 -10.2752 -11.1936 -28.184 10.7294 -19.1592 1.00031e-14 -6.36111e-15 10 7.51323e-15 3.18055e-15 10 3.18055e-15 6.36111e-15 -0 -19.9818 0.871897 -2.3964 -24 -9.54166e-15 -6.36111e-15 -20 3.18055e-15 -7.95139e-16 3.18055e-15 6.36111e-15 -0 -20 3.18055e-15 -0 -24 -6.36111e-15 -5.56597e-15 -20 0 9.54166e-15 3.18055e-15 6.36111e-15 -0 -19.9748 -1.02565 2.81938 -24 3.18055e-15 -1.82882e-14 -20 -3.18055e-15 -7.95139e-16 3.18055e-15 6.36111e-15 -0 -19.7815 -3.00948 8.30515 -24 3.18055e-15 -1.19271e-14 -20 6.36111e-15 6.36111e-15 
0 0 0 0 0 -0 31.9727 12.1014 -111.734 36.802 -47.0654 26.9647 -0.383731 22.0561 -10.6541 6.36274 0.904685 36.0558 47.131 -18.227 17.0231 -5.55817 37.0843 -1.5632 7.41526 -10.4933 21.4098 -2.95151 -2.20948 -9.50429 -0.713056 -1.08611 -2.23482 -1.19766 -1.19363 -3.82277 -0.558135 -0.218066 2.56556 -1.55068 -2.69836 27.3664 -9.91927 5.21875 31.9709 8.88226 4.10394 -3.12969 60.9255 -41.3095 9.93782 25.2246 -11.6693 118.78 12.3888 -32.2818 9.28819 28.184 10.7294 19.1592 8.63487e-15 3.18055e-15 -10 3.3606e-16 -9.54166e-15 -10 -1.76556e-31 6.36111e-15 1.59028e-15 19.9818 0.871897 2.3964 24 2.22639e-14 2.22639e-14 20 1.27222e-14 1.27222e-14 -1.76556e-31 6.36111e-15 1.59028e-15 20 9.54166e-15 2.20651e-14 24 0 2.38542e-14 20 3.18055e-15 3.18055e-15 -1.76556e-31 6.36111e-15 1.59028e-15 19.9748 -1.02565 -2.81938 24 9.54166e-15 1.43125e-14 20 -1.27222e-14 9.54166e-15 -1.76556e-31 6.36111e-15 1.59028e-15 19.7815 -3.00948 -8.30515 24 -1.27222e-14 2.38542e-14 20 -3.18055e-15 6.36111e-15 7.66683 -14.8317 -48.4572 -15.0853 35.3749 -109.544 26.164 -8.43087 -23.6633 -41.1941 -10.079 -11.1786 -28.184 10.7294 -19.1592 9.12804e-15 3.18055e-15 10 4.91207e-15 -9.54166e-15 10 -3.18055e-15 6.36111e-15 -0 -19.9818 0.871897 -2.3964 -24 -3.18055e-15 -7.95139e-15 -20 6.36111e-15 7.95139e-16 -3.18055e-15 6.36111e-15 -0 -20 0 -0 -24 3.18055e-15 -1.59028e-15 -20 -3.18055e-15 8.74653e-15 -3.18055e-15 6.36111e-15 -0 -19.9748 -1.02565 2.81938 -24 -6.36111e-15 -6.36111e-15 -20 -3.18055e-15 1.19271e-14 -3.18055e-15 6.36111e-15 -0 -19.7815 -3.00948 8.30515 -24 -3.18055e-15 -2.38542e-15 -20 3.18055e-15 1.43125e-14 
0 0 0 0 0 -0 32.0183 12.5413 -111.061 36.3768 -47.4376 26.4587 -0.173861 22.1899 -10.8269 6.30624 0.805946 35.6913 47.2739 -19.055 17.1765 -5.02763 37.3578 -2.05248 7.27715 -10.5373 20.9023 -2.7306 -2.13605 -9.96993 -0.657466 -1.03739 -2.36149 -1.10483 -1.14478 -4.02373 -0.560518 -0.213993 2.5747 -1.54017 -2.6865 27.8532 -9.87851 5.39717 31.8086 8.60741 4.40815 -0.857031 61.6469 -41.1937 10.0218 24.4467 -12.0161 117.829 12.258 -32.4013 10.006 28.184 10.7294 19.1592 1.61481e-14 0 -10 6.5029e-16 -3.18055e-15 -10 -7.95139e-15 -6.36111e-15 -1.59028e-15 19.9818 0.871897 2.3964 24 1.90833e-14 2.38542e-14 20 1.27222e-14 2.22639e-14 -7.95139e-15 -6.36111e-15 -1.59028e-15 20 9.54166e-15 2.15681e-14 24 1.59028e-14 2.8625e-14 20 -6.36111e-15 -3.18055e-15 -7.95139e-15 -6.36111e-15 -1.59028e-15 19.9748 -1.02565 -2.81938 24 9.54166e-15 2.06736e-14 20 -6.36111e-15 1.59028e-14 -7.95139e-15 -6.36111e-15 -1.59028e-15 19.7815 -3.00948 -8.30515 24 -1.59028e-14 3.49861e-14 20 1.27222e-14 9.54166e-15 8.10011 -14.4953 -47.1053 -15.4692 35.5958 -109.184 25.9591 -8.31706 -23.1602 -41.2827 -9.8789 -11.1652 -28.184 10.7294 -19.1592 9.37463e-15 6.36111e-15 10 3.22962e-15 0 10 9.54166e-15 1.59028e-14 -6.36111e-15 -19.9818 0.871897 -2.3964 -24 0 -1.11319e-14 -20 0 -7.95139e-15 9.54166e-15 1.59028e-14 -6.36111e-15 -20 -1.27222e-14 9.54166e-15 -24 -3.18055e-15 4.77083e-15 -20 3.18055e-15 7.95139e-16 9.54166e-15 1.59028e-14 -6.36111e-15 -19.9748 -1.02565 2.81938 -24 0 -3.18055e-15 -20 -6.36111e-15 1.27222e-14 9.54166e-15 1.59028e-14 -6.36111e-15 -19.7815 -3.00948 8.30515 -24 0 -1.59028e-14 -20 -3.18055e-15 1.03368e-14 
